<svg width="13" height="21" viewBox="0 0 13 21" fill="none" xmlns="http://www.w3.org/2000/svg">
<path d="M12.0786 11.9328C12.3131 11.6986 12.445 11.3809 12.4453 11.0495V10.4162C12.4415 10.0855 12.3101 9.76903 12.0786 9.53283L3.51198 0.982827C3.35551 0.825066 3.14251 0.736328 2.92031 0.736328C2.69811 0.736328 2.48512 0.825066 2.32864 0.982827L1.14531 2.16616C0.988538 2.31977 0.900192 2.53001 0.900192 2.74949C0.900192 2.96898 0.988538 3.17922 1.14531 3.33283L8.56198 10.7328L1.14531 18.1328C0.987551 18.2893 0.898813 18.5023 0.898813 18.7245C0.898813 18.9467 0.987551 19.1597 1.14531 19.3162L2.32864 20.4828C2.48512 20.6406 2.69811 20.7293 2.92031 20.7293C3.14251 20.7293 3.35551 20.6406 3.51198 20.4828L12.0786 11.9328Z" fill="#097D76"/>
</svg>
