<svg width="26" height="24" viewBox="0 0 26 24" fill="none" xmlns="http://www.w3.org/2000/svg">
<path d="M11.2144 1.73757C11.3609 1.46457 11.5874 1.23472 11.8683 1.074C12.1492 0.913287 12.4734 0.828114 12.8042 0.828114C13.135 0.828114 13.4591 0.913287 13.7401 1.074C14.021 1.23472 14.2475 1.46457 14.3939 1.73757L17.3902 7.326L24.0901 8.22175C24.4176 8.26523 24.7254 8.39222 24.9786 8.58834C25.2318 8.78447 25.4203 9.0419 25.5228 9.33152C25.6252 9.62114 25.6376 9.93138 25.5585 10.2271C25.4794 10.5229 25.3119 10.7924 25.075 11.0051L20.225 15.3569L21.3696 21.4983C21.4252 21.7984 21.3885 22.1068 21.2637 22.3887C21.1389 22.6706 20.931 22.9147 20.6634 23.0935C20.3957 23.2723 20.0791 23.3787 19.7493 23.4006C19.4194 23.4224 19.0895 23.359 18.7968 23.2173L12.8042 20.3197L6.81159 23.2209C6.51856 23.3629 6.18819 23.4265 5.85791 23.4045C5.52763 23.3825 5.21064 23.2758 4.94285 23.0965C4.67505 22.9172 4.46717 22.6725 4.34274 22.39C4.21831 22.1076 4.18232 21.7987 4.23883 21.4983L5.3814 15.3569L0.535314 11.0069C0.29848 10.7943 0.130983 10.525 0.0517626 10.2294C-0.027458 9.93372 -0.0152429 9.62359 0.0870269 9.33402C0.189297 9.04445 0.377542 8.78699 0.630478 8.59075C0.883414 8.39451 1.19095 8.26732 1.51832 8.22356L8.21617 7.32781L11.2144 1.73757Z" fill="#9D1C7F"/>
</svg>
