<svg width="37" height="38" viewBox="0 0 37 38" fill="none" xmlns="http://www.w3.org/2000/svg">
<path fill-rule="evenodd" clip-rule="evenodd" d="M18.3333 34.2376C20.3032 34.2376 22.2537 33.8496 24.0736 33.0958C25.8935 32.342 27.5471 31.2371 28.9399 29.8442C30.3328 28.4513 31.4377 26.7978 32.1915 24.9779C32.9453 23.158 33.3333 21.2075 33.3333 19.2376C33.3333 17.2678 32.9453 15.3173 32.1915 13.4974C31.4377 11.6775 30.3328 10.0239 28.9399 8.63103C27.5471 7.23815 25.8935 6.13326 24.0736 5.37944C22.2537 4.62562 20.3032 4.23763 18.3333 4.23763C14.3551 4.23763 10.5398 5.81798 7.72673 8.63103C4.91369 11.4441 3.33333 15.2594 3.33333 19.2376C3.33333 23.2159 4.91369 27.0312 7.72673 29.8442C10.5398 32.6573 14.3551 34.2376 18.3333 34.2376ZM18.3333 37.571C28.4583 37.571 36.6667 29.3626 36.6667 19.2376C36.6667 9.11263 28.4583 0.904297 18.3333 0.904297C8.20833 0.904297 0 9.11263 0 19.2376C0 29.3626 8.20833 37.571 18.3333 37.571Z" fill="black"/>
<path d="M25 19.2372L15 26.4538V12.0205L25 19.2372Z" fill="black"/>
</svg>
