<svg width="25" height="25" viewBox="0 0 25 25" fill="none" xmlns="http://www.w3.org/2000/svg">
<path d="M19.3365 21.9452C19.3365 21.6852 19.2452 21.4602 19.0625 21.2702C18.8798 21.0802 18.6635 20.9852 18.4135 20.9852C18.1635 20.9852 17.9471 21.0802 17.7644 21.2702C17.5817 21.4602 17.4904 21.6852 17.4904 21.9452C17.4904 22.2052 17.5817 22.4302 17.7644 22.6202C17.9471 22.8102 18.1635 22.9052 18.4135 22.9052C18.6635 22.9052 18.8798 22.8102 19.0625 22.6202C19.2452 22.4302 19.3365 22.2052 19.3365 21.9452ZM23.0288 21.9452C23.0288 21.6852 22.9375 21.4602 22.7548 21.2702C22.5721 21.0802 22.3558 20.9852 22.1058 20.9852C21.8558 20.9852 21.6394 21.0802 21.4567 21.2702C21.274 21.4602 21.1827 21.6852 21.1827 21.9452C21.1827 22.2052 21.274 22.4302 21.4567 22.6202C21.6394 22.8102 21.8558 22.9052 22.1058 22.9052C22.3558 22.9052 22.5721 22.8102 22.7548 22.6202C22.9375 22.4302 23.0288 22.2052 23.0288 21.9452ZM24.875 18.5852V23.3852C24.875 23.7852 24.7404 24.1252 24.4712 24.4052C24.2019 24.6852 23.875 24.8252 23.4904 24.8252H2.25962C1.875 24.8252 1.54808 24.6852 1.27885 24.4052C1.00962 24.1252 0.875 23.7852 0.875 23.3852V18.5852C0.875 18.1852 1.00962 17.8452 1.27885 17.5652C1.54808 17.2852 1.875 17.1452 2.25962 17.1452H8.41827C8.62019 17.7052 8.95914 18.1652 9.4351 18.5252C9.91106 18.8852 10.4423 19.0652 11.0288 19.0652H14.7212C15.3077 19.0652 15.8389 18.8852 16.3149 18.5252C16.7909 18.1652 17.1298 17.7052 17.3317 17.1452H23.4904C23.875 17.1452 24.2019 17.2852 24.4712 17.5652C24.7404 17.8452 24.875 18.1852 24.875 18.5852ZM20.1875 8.8652C20.024 9.26519 19.7404 9.46519 19.3365 9.46519H15.6442V16.1852C15.6442 16.4452 15.5529 16.6702 15.3702 16.8602C15.1875 17.0502 14.9712 17.1452 14.7212 17.1452H11.0288C10.7788 17.1452 10.5625 17.0502 10.3798 16.8602C10.1971 16.6702 10.1058 16.4452 10.1058 16.1852V9.46519H6.41346C6.00962 9.46519 5.72596 9.26519 5.5625 8.8652C5.39904 8.47519 5.46635 8.1302 5.76442 7.83019L12.226 1.1102C12.399 0.920195 12.6154 0.825195 12.875 0.825195C13.1346 0.825195 13.351 0.920195 13.524 1.1102L19.9856 7.83019C20.2837 8.1302 20.351 8.47519 20.1875 8.8652Z" fill="#777777"/>
</svg>
