<svg width="18" height="31" viewBox="0 0 18 31" fill="none" xmlns="http://www.w3.org/2000/svg">
<path d="M17.451 17.004C17.8027 16.6555 18.0005 16.1827 18.001 15.6896L18.001 14.7471C17.9952 14.255 17.7982 13.7841 17.451 13.4326L4.60098 0.709585C4.36627 0.474825 4.04677 0.342776 3.71348 0.342776C3.38018 0.342776 3.06069 0.474825 2.82598 0.709585L1.05098 2.47048C0.815818 2.69905 0.683299 3.01191 0.683299 3.33852C0.683299 3.66513 0.815818 3.97799 1.05098 4.20657L12.176 15.2183L1.05098 26.2301C0.814342 26.463 0.681234 26.7799 0.681235 27.1106C0.681235 27.4412 0.814343 27.7582 1.05098 27.991L2.82598 29.7271C3.06069 29.9619 3.38019 30.0939 3.71348 30.0939C4.04678 30.0939 4.36627 29.9619 4.60098 29.7271L17.451 17.004Z" fill="black"/>
</svg>
